<svg xmlns="http://www.w3.org/2000/svg" enable-background="new 0 0 32 32" viewBox="0 0 32 32" id="brightness"><path d="M16,0.5C7.45001,0.5,0.5,7.45001,0.5,16S7.45001,31.5,16,31.5S31.5,24.54999,31.5,16S24.54999,0.5,16,0.5z M16,28.5C9.10999,28.5,3.5,22.89001,3.5,16S9.10999,3.5,16,3.5S28.5,9.10999,28.5,16S22.89001,28.5,16,28.5z"></path><path d="M16,5.26996c-0.83002,0-1.5,0.67004-1.5,1.5v18.46002c0,0.83002,0.66998,1.5,1.5,1.5c5.91998,0,10.72998-4.81,10.72998-10.72998C26.72998,10.07996,21.91998,5.26996,16,5.26996z"></path></svg>